<?xml version="1.0" standalone="no"?><!DOCTYPE svg PUBLIC "-//W3C//DTD SVG 1.1//EN" "http://www.w3.org/Graphics/SVG/1.1/DTD/svg11.dtd"><svg t="1504682306480" class="icon" style="" viewBox="0 0 1423 1024" version="1.1" xmlns="http://www.w3.org/2000/svg" p-id="2339" xmlns:xlink="http://www.w3.org/1999/xlink" width="277.9296875" height="200"><defs><style type="text/css"></style></defs><path d="M1361.870049 576.212293H61.739707C27.772878 576.212293 0 547.390439 0 512.174829c0-35.265561 27.772878-64.062439 61.739707-64.062439h1300.130342c33.966829 0 61.739707 28.796878 61.739707 64.062439 0 35.21561-27.772878 64.037463-61.739707 64.037464z m0-448.112391H61.739707C27.772878 128.099902 0 99.303024 0 64.062439 0 28.796878 27.772878 0 61.739707 0h1300.130342C1396.136585 0 1423.609756 28.796878 1423.609756 64.062439c0 35.240585-27.772878 64.037463-61.739707 64.037463zM61.739707 895.875122h1300.130342c33.966829 0 61.739707 28.522146 61.739707 64.062439 0 35.565268-27.772878 64.037463-61.739707 64.037463H61.739707c-33.966829 0-61.739707-28.472195-61.739707-64.037463 0-35.540293 27.772878-64.062439 61.739707-64.062439z" p-id="2340"></path></svg>